<svg id="Camada_1" data-name="Camada 1" xmlns="http://www.w3.org/2000/svg" viewBox="0 0 2037.73 856.76"><defs><style>.cls-1{fill:#fffa00;}</style></defs><title>Sem título-2</title><path class="cls-1" d="M233,782.76a43,43,0,1,1-43,43,43,43,0,0,1,43-43m0-1a44,44,0,1,0,44,44,44,44,0,0,0-44-44Z" transform="translate(-32.86 -13)"/><path class="cls-1" d="M77.84,678.61a32.08,32.08,0,1,1-32.19,32.08,32.17,32.17,0,0,1,32.19-32.08m0-1A33.08,33.08,0,1,0,111,710.69a33.14,33.14,0,0,0-33.2-33.08Z" transform="translate(-32.86 -13)"/><path class="cls-1" d="M214.25,537.54a23.61,23.61,0,1,1-23.79,23.61,23.73,23.73,0,0,1,23.79-23.61m0-1A24.61,24.61,0,1,0,239,561.15a24.7,24.7,0,0,0-24.79-24.61Z" transform="translate(-32.86 -13)"/><path class="cls-1" d="M125.45,418a13.38,13.38,0,1,1-13.59,13.38A13.5,13.5,0,0,1,125.45,418m0-1A14.38,14.38,0,1,0,140,431.38,14.49,14.49,0,0,0,125.45,417Z" transform="translate(-32.86 -13)"/><path class="cls-1" d="M52.38,14A18.38,18.38,0,1,1,33.86,32.38,18.48,18.48,0,0,1,52.38,14m0-1A19.38,19.38,0,1,0,71.9,32.38,19.45,19.45,0,0,0,52.38,13Z" transform="translate(-32.86 -13)"/><path class="cls-1" d="M1953.65,776.23a18.38,18.38,0,1,1-18.52,18.38,18.48,18.48,0,0,1,18.52-18.38m0-1a19.38,19.38,0,1,0,19.52,19.38,19.45,19.45,0,0,0-19.52-19.38Z" transform="translate(-32.86 -13)"/><path class="cls-1" d="M1809.58,800.23a29.24,29.24,0,1,1-29.45,29.24,29.39,29.39,0,0,1,29.45-29.24m0-1A30.24,30.24,0,1,0,1840,829.47a30.35,30.35,0,0,0-30.46-30.24Z" transform="translate(-32.86 -13)"/><path class="cls-1" d="M2024.08,699.26a10.87,10.87,0,1,1-10.95,10.86,10.92,10.92,0,0,1,10.95-10.86m0-1a11.87,11.87,0,1,0,12,11.86,11.91,11.91,0,0,0-12-11.86Z" transform="translate(-32.86 -13)"/><path class="cls-1" d="M356.79,427.74h0m0-12a12,12,0,1,0,12.1,12,12.05,12.05,0,0,0-12.1-12Z" transform="translate(-32.86 -13)"/><path class="cls-1" d="M2024.65,37.6h0m0-12a12,12,0,1,0,12.1,12,12.05,12.05,0,0,0-12.1-12Z" transform="translate(-32.86 -13)"/><path class="cls-1" d="M836.37,825.76a5.62,5.62,0,1,1-5.67,5.62,5.65,5.65,0,0,1,5.67-5.62m0-1a6.62,6.62,0,1,0,6.67,6.62,6.64,6.64,0,0,0-6.67-6.62Z" transform="translate(-32.86 -13)"/><path class="cls-1" d="M237.62,320.76a.93.93,0,1,1-.94.93.95.95,0,0,1,.94-.93m0-1a1.93,1.93,0,1,0,1.95,1.93,1.93,1.93,0,0,0-1.95-1.93Z" transform="translate(-32.86 -13)"/><path class="cls-1" d="M385.06,231.77a3,3,0,1,1-3,3,3,3,0,0,1,3-3m0-1a4,4,0,1,0,4,4,4,4,0,0,0-4-4Z" transform="translate(-32.86 -13)"/><path class="cls-1" d="M955.15,787.93a8.42,8.42,0,1,1-8.49,8.42,8.46,8.46,0,0,1,8.49-8.42m0-1a9.42,9.42,0,1,0,9.48,9.42,9.46,9.46,0,0,0-9.48-9.42Z" transform="translate(-32.86 -13)"/><path class="cls-1" d="M1839.86,588.23A18.77,18.77,0,1,1,1821,607a18.86,18.86,0,0,1,18.9-18.76m0-1A19.77,19.77,0,1,0,1859.77,607a19.83,19.83,0,0,0-19.91-19.76Z" transform="translate(-32.86 -13)"/><path class="cls-1" d="M1701.91,109.33A18.77,18.77,0,1,1,1683,128.1a18.87,18.87,0,0,1,18.91-18.77m0-1a19.77,19.77,0,1,0,19.91,19.77,19.84,19.84,0,0,0-19.91-19.77Z" transform="translate(-32.86 -13)"/><path class="cls-1" d="M1925,211.26a28.8,28.8,0,1,1-29,28.8,28.94,28.94,0,0,1,29-28.8m0-1a29.8,29.8,0,1,0,30,29.8,29.91,29.91,0,0,0-30-29.8Z" transform="translate(-32.86 -13)"/><path class="cls-1" d="M817,77a8.95,8.95,0,1,1-9,9,9,9,0,0,1,9-9m0-1a9.95,9.95,0,1,0,10,10,10,10,0,0,0-10-10Z" transform="translate(-32.86 -13)"/><path class="cls-1" d="M2063.27,620.23a6.27,6.27,0,1,1-6.31,6.26,6.3,6.3,0,0,1,6.31-6.26m0-1a7.27,7.27,0,1,0,7.32,7.26,7.28,7.28,0,0,0-7.32-7.26Z" transform="translate(-32.86 -13)"/></svg>