<svg id="Capa_1" enable-background="new 0 0 512 512" height="512" viewBox="0 0 512 512" width="512" xmlns="http://www.w3.org/2000/svg"><g><path d="m392.274 464.936h-16.033c-4.142 0-7.5 3.358-7.5 7.5s3.358 7.5 7.5 7.5h16.033c.285 0 .516.231.516.516v16.032c0 .285-.231.516-.516.516h-272.548c-.285 0-.516-.231-.516-.516v-16.032c0-.285.231-.516.516-.516h224.452c4.142 0 7.5-3.358 7.5-7.5s-3.358-7.5-7.5-7.5h-224.452c-8.556 0-15.516 6.96-15.516 15.516v16.032c0 8.556 6.96 15.516 15.516 15.516h272.549c8.556 0 15.516-6.96 15.516-15.516v-16.032c-.001-8.556-6.961-15.516-15.517-15.516z"/><path d="m413.629 225.23c-2.607-5.425-7.966-8.794-13.985-8.794h-63.999v-200.92c0-8.556-6.96-15.516-15.516-15.516h-128.258c-8.556 0-15.516 6.96-15.516 15.516v160.323c0 4.142 3.358 7.5 7.5 7.5s7.5-3.358 7.5-7.5v-160.323c0-.285.231-.516.516-.516h128.258c.285 0 .516.231.516.516v208.419c0 4.142 3.358 7.5 7.5 7.5h71.499c.145 0 .325 0 .465.292.141.293.028.434-.062.546l-143.643 179.556c-.047.058-.156.194-.404.194s-.357-.136-.403-.193l-143.644-179.556c-.091-.113-.203-.253-.062-.546.141-.292.321-.292.465-.292h71.499c4.142 0 7.5-3.358 7.5-7.5v-16.032c0-4.142-3.358-7.5-7.5-7.5s-7.5 3.358-7.5 7.5v8.532h-63.999c-6.019 0-11.377 3.37-13.985 8.794-2.607 5.424-1.892 11.714 1.869 16.415l143.644 179.555c2.96 3.701 7.377 5.823 12.116 5.823s9.155-2.122 12.116-5.823l143.645-179.555c3.759-4.701 4.475-10.991 1.868-16.415z"/></g></svg>