<?xml version="1.0" encoding="iso-8859-1"?>
<!-- Generator: Adobe Illustrator 18.1.1, SVG Export Plug-In . SVG Version: 6.00 Build 0)  -->
<svg version="1.1" id="Capa_1" xmlns="http://www.w3.org/2000/svg" xmlns:xlink="http://www.w3.org/1999/xlink" x="0px" y="0px"
	 viewBox="0 0 295.988 295.988" style="enable-background:new 0 0 295.988 295.988;" xml:space="preserve">
<g>
	<g>
		<path style="fill:#010002;" d="M227.81,50.888h-47.543V41.69c0-3.008-2.431-5.439-5.439-5.439h-53.673
			c-3.008,0-5.439,2.431-5.439,5.439v9.197H68.173C30.584,50.888,0,81.472,0,119.061v80.846c0,32.988,24.171,59.83,53.885,59.83
			c29.072,0,58.018-21.718,64.535-48.408l9.79-40.119h40.711l14.734,40.679c9.72,26.831,37.84,47.847,64.023,47.847
			c26.635,0,48.31-26.842,48.31-59.83v-80.846C295.983,81.472,265.399,50.888,227.81,50.888z M126.589,47.124h42.795v3.758h-42.795
			V47.124z M285.105,199.907c0,26.994-16.79,48.952-37.432,48.952c-21.539,0-45.666-18.243-53.792-40.679l-16.034-44.269
			c-0.783-2.154-2.828-3.584-5.113-3.584h-48.799c-2.507,0-4.688,1.713-5.287,4.15l-10.802,44.269
			c-5.396,22.115-29.605,40.113-53.966,40.113c-23.714,0-43.007-21.957-43.007-48.952v-80.846c0-31.596,25.705-57.295,57.295-57.295
			h52.982h53.673h52.982c31.596,0,57.295,25.705,57.295,57.295v80.846H285.105z"/>
		<circle style="fill:#010002;" cx="225.362" cy="94.808" r="10.247"/>
		<circle style="fill:#010002;" cx="225.362" cy="152.381" r="10.247"/>
		<circle style="fill:#010002;" cx="254.146" cy="123.597" r="10.253"/>
		<circle style="fill:#010002;" cx="196.573" cy="123.597" r="10.253"/>
		<path style="fill:#010002;" d="M97.838,114.933H74.586V91.675c0-4.656-3.775-8.431-8.431-8.431c-4.661,0-8.436,3.769-8.436,8.431
			v23.257H34.462c-4.656,0-8.431,3.769-8.431,8.431c0,4.656,3.775,8.431,8.431,8.431h23.257v23.257c0,4.656,3.775,8.431,8.436,8.431
			c4.65,0,8.431-3.769,8.431-8.431v-23.257h23.252c4.65,0,8.431-3.769,8.431-8.431C106.268,118.708,102.494,114.933,97.838,114.933z
			"/>
	</g>
</g>
<g>
</g>
<g>
</g>
<g>
</g>
<g>
</g>
<g>
</g>
<g>
</g>
<g>
</g>
<g>
</g>
<g>
</g>
<g>
</g>
<g>
</g>
<g>
</g>
<g>
</g>
<g>
</g>
<g>
</g>
</svg>
