<?xml version="1.0" encoding="utf-8"?>
<!-- Generator: Adobe Illustrator 24.0.1, SVG Export Plug-In . SVG Version: 6.00 Build 0)  -->
<svg version="1.1" id="Capa_1" xmlns="http://www.w3.org/2000/svg" xmlns:xlink="http://www.w3.org/1999/xlink" x="0px" y="0px"
	 viewBox="0 0 63.1 63.1" style="enable-background:new 0 0 63.1 63.1;" xml:space="preserve">
<style type="text/css">
	.st0{fill:#FFD000;}
</style>
<ellipse class="st0" cx="31" cy="32.3" rx="30.7" ry="30.5"/>
<g>
	<g>
		<path d="M55.9,0c-0.8,0-1.5,0.7-1.5,1.5V7l-2.7,2.7c-5.4-4.9-12.7-8-20.6-8C14.1,1.8,0.4,15.5,0.4,32.4S14.1,63.1,31,63.1
			s30.7-13.8,30.7-30.7c0-7.9-3-15.1-8-20.6l2.7-2.7h4.7c0.8,0,1.5-0.7,1.5-1.5S62,6.1,61.2,6.1h-3.8V1.5C57.4,0.7,56.7,0,55.9,0z
			 M58.7,32.4c0,15.3-12.4,27.7-27.7,27.7c-15.3,0-27.7-12.4-27.7-27.7S15.8,4.8,31,4.8c7.1,0,13.6,2.7,18.5,7.1l-5.8,5.8
			c-3.4-2.9-7.8-4.7-12.7-4.7c-10.8,0-19.5,8.7-19.5,19.5S20.3,51.9,31,51.9c10.8,0,19.5-8.7,19.5-19.5c0-4.8-1.8-9.3-4.7-12.7
			l5.8-5.8C56,18.9,58.7,25.3,58.7,32.4z M35.2,32.4c0,2.3-1.9,4.2-4.2,4.2s-4.2-1.9-4.2-4.2s1.9-4.2,4.2-4.2c0.6,0,1.2,0.1,1.7,0.4
			L30,31.4c-0.6,0.6-0.6,1.5,0,2.1c0.3,0.3,0.7,0.4,1.1,0.4c0.4,0,0.8-0.1,1.1-0.4l2.7-2.7C35.1,31.2,35.2,31.8,35.2,32.4z
			 M34.9,26.4c-1.1-0.7-2.5-1.2-3.9-1.2c-4,0-7.2,3.2-7.2,7.2s3.2,7.2,7.2,7.2s7.2-3.2,7.2-7.2c0-1.4-0.4-2.8-1.2-3.9l6.7-6.7
			c2.4,2.9,3.8,6.5,3.8,10.5c0,9.1-7.4,16.5-16.5,16.5c-9.1,0-16.5-7.4-16.5-16.5c0-9.1,7.4-16.5,16.5-16.5c4,0,7.7,1.4,10.6,3.8
			L34.9,26.4z"/>
	</g>
</g>
</svg>
